<svg height="18" viewBox="0 0 18 18" width="18" xmlns="http://www.w3.org/2000/svg"><path d="m9 0c-4.971 0-9 4.02975-9 9s4.029 9 9 9 9-4.02975 9-9-4.029-9-9-9zm7.41375 8.58075c-1.93125-.3165-3.70725-.33375-5.32725-.05475-.183-.42225-.37275-.84375-.57525-1.26 1.7325-.75 3.12375-1.7685 4.161-3.0615 1.0125 1.1955 1.64775 2.71425 1.7415 4.37625zm-2.8815-5.4615c-.90375 1.1655-2.151 2.08725-3.7395 2.76-.762-1.39575-1.6335-2.757-2.616-4.0785.58425-.14775 1.19325-.2355 1.82325-.2355 1.70625 0 3.276.58425 4.53225 1.554zm-7.887-.74475c.99825 1.3065 1.88325 2.6535 2.65275 4.03575-1.8225.53625-3.99825.8115-6.513.82875.519-2.12625 1.95075-3.89475 3.86025-4.8645zm-4.08 6.6255.00975-.192c2.88675-.00375 5.37675-.336 7.4625-.9915.17475.35625.342.714.5025 1.074-2.535.79275-4.62375 2.4165-6.25275 4.86-1.074-1.28925-1.722-2.94525-1.722-4.7505zm2.87175 5.8575c1.47675-2.316 3.3615-3.8235 5.6985-4.52025.696 1.815 1.20675 3.6825 1.53225 5.595-2.51175.96825-5.21475.4995-7.23075-1.07475zm8.6895.3225c-.3285-1.76475-.81-3.48975-1.44-5.17275 1.407-.19875 2.955-.147 4.64925.147-.32775 2.0895-1.521 3.894-3.20925 5.02575z" fill="#999"/></svg>