<svg height="17" viewBox="0 0 20 17" width="20" xmlns="http://www.w3.org/2000/svg"><path d="m20 2.13083333c-.7358333.32666667-1.5266667.54666667-2.3566667.64583334.8475-.5075 1.4983334-1.31166667 1.8041667-2.27-.7925.47-1.6708333.81166666-2.6058333.99583333-.7475-.7975-1.815-1.29583333-2.995-1.29583333-2.6491667 0-4.59583337 2.47166666-3.99750003 5.0375-3.40916667-.17083334-6.4325-1.80416667-8.45666667-4.28666667-1.075 1.84416667-.5575 4.25666667 1.26916667 5.47833333-.67166667-.02166666-1.305-.20583333-1.8575-.51333333-.045 1.90083333 1.3175 3.67916667 3.29083333 4.075-.5775.1566667-1.21.1933333-1.85333333.07.52166666 1.63 2.03666666 2.8158333 3.83333333 2.8491667-1.725 1.3525-3.89833333 1.9566666-6.075 1.7 1.81583333 1.1641666 3.97333333 1.8433333 6.29 1.8433333 7.6183333 0 11.9225-6.4341667 11.6625-12.205.8016667-.57916667 1.4975-1.30166667 2.0475-2.12416667z" fill="#999"/></svg>